<?xml version="1.0" encoding="UTF-8" standalone="no"?>
<!DOCTYPE svg PUBLIC "-//W3C//DTD SVG 1.1//EN"
 "http://www.w3.org/Graphics/SVG/1.1/DTD/svg11.dtd">
<!-- Generated by graphviz version 2.38.0 (20140413.2041)
 -->
<!-- Title: G Pages: 1 -->
<svg width="381pt" height="463pt"
 viewBox="0.00 0.00 391.39 476.00" xmlns="http://www.w3.org/2000/svg" xmlns:xlink="http://www.w3.org/1999/xlink">
<g id="graph0" class="graph" transform="scale(0.972222 0.972222) rotate(0) translate(4 472)">
<title>G</title>
<polygon fill="white" stroke="none" points="-4,4 -4,-472 387.39,-472 387.39,4 -4,4"/>
<!-- 252277567 -->
<g id="node1" class="node"><title>252277567</title>
<g id="a_node1"><a xlink:title="SHVisite BPrepare ">
<ellipse fill="none" stroke="black" cx="260.746" cy="-450" rx="27" ry="18"/>
<text text-anchor="middle" x="260.746" y="-446.3" font-family="Times New Roman,serif" font-size="14.00">init</text>
</a>
</g>
</g>
<!-- 1565740893 -->
<g id="node2" class="node"><title>1565740893</title>
<g id="a_node2"><a xlink:title="SHVengeance BBalade ">
<ellipse fill="none" stroke="black" cx="260.746" cy="-378" rx="73.387" ry="18"/>
<text text-anchor="middle" x="260.746" y="-374.3" font-family="Times New Roman,serif" font-size="14.00">DebutPromenade</text>
</a>
</g>
</g>
<!-- 252277567&#45;&gt;1565740893 -->
<g id="edge1" class="edge"><title>252277567&#45;&gt;1565740893</title>
<path fill="none" stroke="black" d="M260.746,-431.697C260.746,-423.983 260.746,-414.712 260.746,-406.112"/>
<polygon fill="black" stroke="black" points="264.246,-406.104 260.746,-396.104 257.246,-406.104 264.246,-406.104"/>
</g>
<!-- 775514090 -->
<g id="node3" class="node"><title>775514090</title>
<g id="a_node3"><a xlink:title="SHVengeance BBalade SHCuisine CCottage ">
<ellipse fill="none" stroke="black" cx="209.746" cy="-306" rx="67.6881" ry="18"/>
<text text-anchor="middle" x="209.746" y="-302.3" font-family="Times New Roman,serif" font-size="14.00">SHCuisineOurs</text>
</a>
</g>
</g>
<!-- 1565740893&#45;&gt;775514090 -->
<g id="edge2" class="edge"><title>1565740893&#45;&gt;775514090</title>
<path fill="none" stroke="black" d="M248.4,-360.055C242.261,-351.629 234.721,-341.28 227.935,-331.966"/>
<polygon fill="black" stroke="black" points="230.695,-329.81 221.978,-323.789 225.037,-333.932 230.695,-329.81"/>
</g>
<!-- 1371957475 -->
<g id="node10" class="node"><title>1371957475</title>
<g id="a_node10"><a xlink:title="CMaison SHMaison ">
<ellipse fill="none" stroke="black" cx="317.746" cy="-234" rx="49.2915" ry="18"/>
<text text-anchor="middle" x="317.746" y="-230.3" font-family="Times New Roman,serif" font-size="14.00">SHMaison</text>
</a>
</g>
</g>
<!-- 1565740893&#45;&gt;1371957475 -->
<g id="edge9" class="edge"><title>1565740893&#45;&gt;1371957475</title>
<path fill="none" stroke="black" d="M269.709,-360.056C274.987,-349.77 281.611,-336.294 286.746,-324 295.338,-303.428 303.565,-279.541 309.383,-261.697"/>
<polygon fill="black" stroke="black" points="312.785,-262.551 312.514,-251.959 306.121,-260.408 312.785,-262.551"/>
</g>
<!-- 1894369629 -->
<g id="node4" class="node"><title>1894369629</title>
<g id="a_node4"><a xlink:title="SHVengeance BBalade SHCuisine CCottage MLait ">
<ellipse fill="none" stroke="black" cx="198.746" cy="-234" rx="51.9908" ry="18"/>
<text text-anchor="middle" x="198.746" y="-230.3" font-family="Times New Roman,serif" font-size="14.00">MBoireLait</text>
</a>
</g>
</g>
<!-- 775514090&#45;&gt;1894369629 -->
<g id="edge3" class="edge"><title>775514090&#45;&gt;1894369629</title>
<path fill="none" stroke="black" d="M207.027,-287.697C205.814,-279.983 204.358,-270.712 203.006,-262.112"/>
<polygon fill="black" stroke="black" points="206.444,-261.44 201.433,-252.104 199.528,-262.526 206.444,-261.44"/>
</g>
<!-- 1297502382 -->
<g id="node5" class="node"><title>1297502382</title>
<g id="a_node5"><a xlink:title="SHVengeance BBalade CCottage MLait SHSalon ">
<ellipse fill="none" stroke="black" cx="108.746" cy="-162" rx="42.7926" ry="18"/>
<text text-anchor="middle" x="108.746" y="-158.3" font-family="Times New Roman,serif" font-size="14.00">SHSalon</text>
</a>
</g>
</g>
<!-- 1894369629&#45;&gt;1297502382 -->
<g id="edge4" class="edge"><title>1894369629&#45;&gt;1297502382</title>
<path fill="none" stroke="black" d="M178.323,-217.116C165.868,-207.429 149.789,-194.923 136.227,-184.374"/>
<polygon fill="black" stroke="black" points="138.204,-181.478 128.162,-178.101 133.907,-187.004 138.204,-181.478"/>
</g>
<!-- 1876682596 -->
<g id="node8" class="node"><title>1876682596</title>
<g id="a_node8"><a xlink:title="SHVengeance BBalade CCottage MLait SHCave ">
<ellipse fill="none" stroke="black" cx="200.746" cy="-90" rx="40.8928" ry="18"/>
<text text-anchor="middle" x="200.746" y="-86.3" font-family="Times New Roman,serif" font-size="14.00">SHCave</text>
</a>
</g>
</g>
<!-- 1894369629&#45;&gt;1876682596 -->
<g id="edge7" class="edge"><title>1894369629&#45;&gt;1876682596</title>
<path fill="none" stroke="black" d="M198.987,-215.871C199.328,-191.67 199.954,-147.211 200.36,-118.393"/>
<polygon fill="black" stroke="black" points="203.862,-118.238 200.504,-108.189 196.863,-118.139 203.862,-118.238"/>
</g>
<!-- 171493374 -->
<g id="node6" class="node"><title>171493374</title>
<g id="a_node6"><a xlink:title="SHVengeance BBalade CCottage MLait SHSalon MBois ">
<ellipse fill="none" stroke="black" cx="97.7457" cy="-90" rx="35.194" ry="18"/>
<text text-anchor="middle" x="97.7457" y="-86.3" font-family="Times New Roman,serif" font-size="14.00">MBois</text>
</a>
</g>
</g>
<!-- 1297502382&#45;&gt;171493374 -->
<g id="edge5" class="edge"><title>1297502382&#45;&gt;171493374</title>
<path fill="none" stroke="black" d="M106.027,-143.697C104.814,-135.983 103.358,-126.712 102.006,-118.112"/>
<polygon fill="black" stroke="black" points="105.444,-117.44 100.433,-108.104 98.5284,-118.526 105.444,-117.44"/>
</g>
<!-- 1714933741297502382 -->
<g id="node7" class="node"><title>1714933741297502382</title>
<g id="a_node7"><a xlink:title="init&#45;&gt;DebutPromenade&#45;&gt;SHCuisineOurs&#45;&gt;MBoireLait&#45;&gt;SHSalon&#45;&gt;MBois&#45;&gt;failure">
<ellipse fill="none" stroke="red" cx="88.7457" cy="-18" rx="48.9926" ry="18"/>
<text text-anchor="middle" x="88.7457" y="-14.3" font-family="Times New Roman,serif" font-size="14.00" fill="red">FAILURE</text>
</a>
</g>
<text text-anchor="start" x="0" y="-39.8" font-family="Times New Roman,serif" font-size="14.00" fill="red">11 &#45; 17</text>
</g>
<!-- 171493374&#45;&gt;1714933741297502382 -->
<g id="edge6" class="edge"><title>171493374&#45;&gt;1714933741297502382</title>
<path fill="none" stroke="black" d="M95.521,-71.6966C94.5292,-63.9827 93.3373,-54.7125 92.2316,-46.1124"/>
<polygon fill="black" stroke="black" points="95.6915,-45.5763 90.9448,-36.1043 88.7487,-46.469 95.6915,-45.5763"/>
</g>
<!-- 18766825961894369629 -->
<g id="node9" class="node"><title>18766825961894369629</title>
<g id="a_node9"><a xlink:title="init&#45;&gt;DebutPromenade&#45;&gt;SHCuisineOurs&#45;&gt;MBoireLait&#45;&gt;SHCave&#45;&gt;failure">
<ellipse fill="none" stroke="red" cx="203.746" cy="-18" rx="48.9926" ry="18"/>
<text text-anchor="middle" x="203.746" y="-14.3" font-family="Times New Roman,serif" font-size="14.00" fill="red">FAILURE</text>
</a>
</g>
<text text-anchor="start" x="122" y="-39.8" font-family="Times New Roman,serif" font-size="14.00" fill="red">7 &#45; 10</text>
</g>
<!-- 1876682596&#45;&gt;18766825961894369629 -->
<g id="edge8" class="edge"><title>1876682596&#45;&gt;18766825961894369629</title>
<path fill="none" stroke="black" d="M201.487,-71.6966C201.818,-63.9827 202.215,-54.7125 202.584,-46.1124"/>
<polygon fill="black" stroke="black" points="206.081,-46.2451 203.013,-36.1043 199.088,-45.9453 206.081,-46.2451"/>
</g>
<!-- 778731861 -->
<g id="node11" class="node"><title>778731861</title>
<g id="a_node11"><a xlink:title="CMaison SHMaison OPotion ">
<ellipse fill="none" stroke="black" cx="317.746" cy="-162" rx="65.7887" ry="18"/>
<text text-anchor="middle" x="317.746" y="-158.3" font-family="Times New Roman,serif" font-size="14.00">PreparerPotion</text>
</a>
</g>
</g>
<!-- 1371957475&#45;&gt;778731861 -->
<g id="edge10" class="edge"><title>1371957475&#45;&gt;778731861</title>
<path fill="none" stroke="black" d="M317.746,-215.697C317.746,-207.983 317.746,-198.712 317.746,-190.112"/>
<polygon fill="black" stroke="black" points="321.246,-190.104 317.746,-180.104 314.246,-190.104 321.246,-190.104"/>
</g>
<!-- 7787318611371957475 -->
<g id="node12" class="node"><title>7787318611371957475</title>
<g id="a_node12"><a xlink:title="init&#45;&gt;DebutPromenade&#45;&gt;SHMaison&#45;&gt;PreparerPotion&#45;&gt;success">
<ellipse fill="none" stroke="green" cx="317.746" cy="-18" rx="46.2923" ry="18"/>
<text text-anchor="middle" x="317.746" y="-14.3" font-family="Times New Roman,serif" font-size="14.00" fill="green">SUCCES</text>
</a>
</g>
<text text-anchor="start" x="245.6" y="-39.8" font-family="Times New Roman,serif" font-size="14.00" fill="green">5 &#45; 8</text>
</g>
<!-- 778731861&#45;&gt;7787318611371957475 -->
<g id="edge11" class="edge"><title>778731861&#45;&gt;7787318611371957475</title>
<path fill="none" stroke="black" d="M317.746,-143.871C317.746,-119.67 317.746,-75.2108 317.746,-46.3932"/>
<polygon fill="black" stroke="black" points="321.246,-46.1892 317.746,-36.1893 314.246,-46.1893 321.246,-46.1892"/>
</g>
</g>
</svg>
